<?xml version="1.0" encoding="UTF-8"?>
<svg xmlns="http://www.w3.org/2000/svg" xmlns:xlink="http://www.w3.org/1999/xlink" viewBox="0 0 50 50" width="50px" height="50px">
<g id="surface187727">
<path style=" stroke:none;fill-rule:nonzero;fill:rgb(93.333334%,93.333334%,93.333334%);fill-opacity:1;" d="M 44.257812 5.332031 L 31.84375 2.03125 C 31.652344 1.980469 31.449219 1.988281 31.261719 2.054688 L 5.675781 10.855469 C 5.269531 10.992188 5 11.371094 5 11.800781 L 5 38.273438 C 5 38.636719 5.285156 39.011719 5.675781 39.144531 L 31.261719 47.945312 C 31.367188 47.980469 31.476562 48 31.589844 48 C 31.675781 48 31.761719 47.988281 31.84375 47.96875 L 44.257812 44.667969 C 44.695312 44.550781 45 44.152344 45 43.699219 L 45 6.300781 C 45 5.847656 44.695312 5.449219 44.257812 5.332031 Z M 30 10.828125 L 30 40.359375 L 8.152344 37.476562 L 15.34375 34.839844 C 15.738281 34.695312 16 34.320312 16 33.898438 L 16 13.714844 Z M 30 10.828125 "/>
</g>
</svg>
